<svg xmlns="http://www.w3.org/2000/svg" xmlns:xlink="http://www.w3.org/1999/xlink" viewBox="0 0 500 500"><defs><style>.cls-1,.cls-36,.cls-37,.cls-39,.cls-40,.cls-6{fill:none;}.cls-2{isolation:isolate;}.cls-3{clip-path:url(#clip-path);}.cls-4,.cls-5{fill:#c1f2ff;}.cls-5,.cls-6,.cls-7{opacity:0.45;mix-blend-mode:screen;}.cls-6{stroke:#c1f2ff;stroke-width:2.11px;}.cls-36,.cls-37,.cls-39,.cls-40,.cls-6{stroke-miterlimit:10;}.cls-8{fill:#a3ad24;}.cls-9{fill:#6f3128;}.cls-35,.cls-41,.cls-9{mix-blend-mode:multiply;}.cls-10{fill:#cad451;}.cls-11{fill:#a2ac00;}.cls-12{fill:#bdc719;}.cls-13{fill:#793816;}.cls-14{fill:#260e10;}.cls-15{fill:#ffbd6f;}.cls-16{fill:#b36409;}.cls-17{fill:#f0890c;}.cls-18{fill:#4f250e;}.cls-19{fill:#ffb254;}.cls-20{fill:#b86909;}.cls-21,.cls-35{fill:#4e1d20;}.cls-22{fill:#eedbb3;}.cls-23{fill:#712d20;}.cls-24{fill:#fff;}.cls-25{fill:#ea8299;}.cls-26{fill:#c5697e;}.cls-27{fill:#d9c7a3;}.cls-28{fill:#ecdbb0;}.cls-29{fill:#ffefd5;}.cls-30{fill:#ffedd9;}.cls-31{fill:#dc768b;}.cls-32{fill:#b8637a;}.cls-33{fill:#282723;}.cls-34{fill:#4098d3;}.cls-35{opacity:0.3;}.cls-36,.cls-37{stroke:#fff;stroke-linecap:round;}.cls-37{stroke-dasharray:4.86 4.86;}.cls-38{fill:#57280f;}.cls-39{stroke:#000;stroke-width:0.95px;}.cls-40{stroke:#ffefd5;stroke-width:4px;}.cls-41{opacity:0.5;}</style><clipPath id="clip-path"><path class="cls-1" d="M432.22,263.06c-.48,2.37-1,4.74-1.55,7.1-18.86,79.83-86,144.11-174.72,142.47l-27.63-4.4c-90.36-1.66-210.15-69-214.45-151.52-.92-17.69,3.47-36.07,14.6-54.66.75-1.24,1.52-2.49,2.33-3.74,12.92-20,31.73-21.65,47.44-52.9,0,0,0,0,0,0,5.26-10.45,9.81-20.85,14.19-31q1.5-3.48,3-6.92c21.71-49.95,42.19-90.85,129-90.84,100,0,172.21,62.07,200.33,142,.1.27.19.53.28.79.18.51.35,1,.53,1.54a199,199,0,0,1,6.82,25.78l.94,5.26A198.59,198.59,0,0,1,432.22,263.06Z"/></clipPath></defs><title>2SVG</title><g class="cls-2"><g id="Слой_4" data-name="Слой 4"><g class="cls-3"><path class="cls-4" d="M429.93,261.67c-.48,2.37-1,4.74-1.55,7.1-18.86,79.83-86,144.11-174.72,142.47L226,406.84c-90.36-1.66-210.15-69-214.45-151.52-.92-17.69,3.47-36.07,14.6-54.66.75-1.24,1.52-2.49,2.33-3.74,12.92-20,31.73-21.65,47.44-52.9,0,0,0,0,0,0,5.26-10.45,9.81-20.85,14.19-31q1.5-3.48,3-6.92c21.71-49.95,42.19-90.85,129-90.84,100,0,172.21,62.07,200.33,142,.1.27.19.53.28.79.18.51.35,1,.53,1.54a199,199,0,0,1,6.82,25.78l.94,5.26A198.59,198.59,0,0,1,429.93,261.67Z"/><path class="cls-5" d="M393.18,228.72c-28.63-32-46.12-17.14-63.16-26.71-27.48-15.44-32.59-67.47-54.88-74.58s-55,41.22-74.38,41.15-21.91-45.95-45.85-52.47-39.83,56.48-60.35,60.71c-8.38,1.72-20.1,1.16-31-.1-1,2.29-2,4.6-3,6.92,53.37,15.35,76-33.34,81.6-39.07,6.5-6.63,6.75,18.5,30.27,29.11s60.64-1.27,92.58-5.86,47.22,33.3,63,40c10.81,4.62,45.18,15.82,65.71,22.4Z"/></g><path class="cls-6" d="M91.89,128.81c12.69-4.15,31.61-18.23,62.45-51.62,28.76-31.15,112.1,1.32,140.21,38,15,19.57,44.49,22.08,63.69-2"/><g class="cls-7"><path class="cls-4" d="M29.29,251.24A274.05,274.05,0,0,0,53.94,265,193.22,193.22,0,0,0,79.87,275.8a111.46,111.46,0,0,0,13.48,3.56c1.13.24,2.28.39,3.42.59s2.28.29,3.43.43c2.33.22,4.65.46,7,.59a106.4,106.4,0,0,0,27.67-1.42,77.49,77.49,0,0,0,13.25-3.93,134.42,134.42,0,0,0,12.68-5.95c8.33-4.38,16.69-8.91,25.4-12.67,4.34-1.9,8.76-3.61,13.23-5.2s9-2.94,13.61-4.12a127,127,0,0,1,28.19-4.22,88.37,88.37,0,0,1,28.47,3.64,77.62,77.62,0,0,1,25.57,13.42,81.82,81.82,0,0,1,10.53,10l1.21,1.35,1.14,1.41c.74.92,1.58,2,2.15,2.63a16,16,0,0,0,5.06,3.5,39,39,0,0,0,12.95,2.94,76.67,76.67,0,0,0,13.74-.27,125.45,125.45,0,0,0,52.21-18.21,100.43,100.43,0,0,0,21.56-17.68,85.06,85.06,0,0,0,8.6-11.06,81.21,81.21,0,0,0,6.55-12.45l.4.15a77.43,77.43,0,0,1-14.05,24.66,103,103,0,0,1-21.38,19,126.72,126.72,0,0,1-25.52,13,117.27,117.27,0,0,1-27.89,6.92,81,81,0,0,1-14.53.44,41.79,41.79,0,0,1-14.51-3.32A20.43,20.43,0,0,1,307,279c-1-1.12-1.59-1.94-2.33-2.85s-1.43-1.8-2.2-2.65a77.49,77.49,0,0,0-9.82-9.65,75.59,75.59,0,0,0-24-13.21,91.56,91.56,0,0,0-27.34-4.49c-18.68-.25-37.4,4.37-54.49,12.12-4.29,1.92-8.46,4.1-12.57,6.39s-8.12,4.76-12.21,7.15a134.54,134.54,0,0,1-12.65,6.67,69.6,69.6,0,0,1-13.69,4.63c-9.45,2.18-19.19,2.28-28.69,1.54-2.38-.16-4.75-.43-7.12-.69-1.19-.16-2.39-.33-3.58-.52s-2.38-.42-3.55-.69a112.57,112.57,0,0,1-13.8-4A176.61,176.61,0,0,1,53,266.89c-4.16-2.28-8.21-4.75-12.21-7.28s-7.92-5.18-11.71-8Z"/></g><path class="cls-5" d="M374.56,229.51c12.13-12.14,28.87-28.37,48.18-36.09-7.14,12.69-13.63,35.9-24.06,38.73A31.37,31.37,0,0,1,374.56,229.51Z"/><path class="cls-5" d="M431.06,190.69a67.38,67.38,0,0,0-8.32,2.73c2.34-4.15,4.74-7.17,7.38-8Z"/><path class="cls-8" d="M498.79,391.75s-91.85-74.09-233.52-96.2C3.61,254.72,11.43,414.2,11.43,414.2Z"/><path class="cls-9" d="M21.27,432.58s37.78,36.7,53.11,32.49,29.9-14.55,41.64-.92,60.44,15.2,102.63,12.57c34.9-2.18,74.06-20.08,84.61-18.5s29.71,3.34,46.92,7.71c12.06,3.07,24.79-18.37,35.47-14.47S407,459.27,418,458.21s42.05-39.45,42.05-39.45S71.74,412.36,21.27,432.58Z"/><path class="cls-10" d="M431.14,407.85c-60.73,2.84-157.59-12.88-128.8-25.25-12.52-4.79-104.89,12.66-82.49-5.65,16.63-13.6,80.77-23.27,132.41-22.48q17.15.27,32,.82c56.21,2.08,113,26.93,114.51,36.46S451.94,406.87,431.14,407.85Z"/><path class="cls-10" d="M230.3,461.91c-60.73,7.88-153.69,2.35-124.9-32-12.52-13.29-110.83,24.25-94-15.72,16-38,100-32.15,151.65-30q17.15.74,32,2.28c56.21,5.78,103.65,15.87,105.19,42.33S251.1,459.21,230.3,461.91Z"/><path class="cls-11" d="M441.51,432.1c-46,13.77-116.33,30.34-169.39,0,28.5,5.42,68.87-2.75,87.65-16.43C377.78,402.57,412.54,417.54,441.51,432.1Z"/><path class="cls-12" d="M441.52,432.1h0c-39.52,6.21-61.13-23.78-90-6.13-19.82,12.12-50.88,11.55-79.38,6.13,9.64-2.76,15.27-5.56,14.71-8.13-3.87-17.72-35.51-31.67-91.71-37.45,15.93-7.82,46.11-19,89.11-19.86,66.43-1.3,166.73,27.35,175.85,52.1C461.87,423.63,454.65,428.15,441.52,432.1Z"/><path class="cls-13" d="M392.38,110.42c-.49,1-.21,2.13-.31,3a3.73,3.73,0,0,1-2.44,3.3,2.39,2.39,0,0,0-1,1s-4.83,14.29-10.75,15.42c-5.76,1.12-8-.85-9.84-2.41-.05,0-.23-.47-.29-.51-.41-.36-.9-.82-1.44-1.35-1.81-1.82-4-4.57-4.72-7.66-.82-3.64-2.23-14.24-2.46-16,1.05-.05,2.36-1,3.6-1.13,5.09-.38,11.35-.94,16.13-1.38l7.29-.7s1.82,2.72,4.32.9C392.39,101.42,394,107.28,392.38,110.42Z"/><path class="cls-14" d="M395.75,108.12h0a23.2,23.2,0,0,1-3.35,2.3c.25-3.32.1-6.95-1.79-5.57-2.5,1.82-2.39,6.16-2.39,6.16l-1.82-.23-.34-8s2.39-1.37,6.95-.12C395.86,103.47,396,106.21,395.75,108.12Z"/><path class="cls-15" d="M396.52,107.47l-.77.66c.27-1.92.11-4.65-2.76-5.44-4.56-1.24-6.95.12-6.95.12l-8.81.84c6.18-3.2,4.79-8.51,8.29-11,3.33-2.44,10-1.4,12.6,4.5C401,103.49,399.59,104.73,396.52,107.47Z"/><path class="cls-16" d="M384,96.18c-.75,2.87-1.81,5.54-5.24,7.32-4.77.44-11,1-16.13,1.38-2.45-.44-6.1,0-8.76-1.57-2.91-1.72-4.14-5.79-5.44-7.74,1.16-3.05,6.92-3.39,8.89-1.2C357.31,94.36,380.69,93,384,96.18Z"/><path class="cls-15" d="M389.46,91.39s-1.75,1.46-3.28,2.58c-3.45-.08-13.13-.48-18.82.08-6.95.68-9.25,4.08-9.25,4.08l-.79-3.78c1.59-5,5.13-14.36,6.27-13.45s6.73.56,8.32-1.26,8.33-.34,10.6,1.6S389.46,91.39,389.46,91.39Z"/><path class="cls-17" d="M386.17,92.61a5.28,5.28,0,0,0-2.08,3.12c0,.15-.07.3-.11.45a104.6,104.6,0,0,0-16.63,1,15.61,15.61,0,0,0-9.25,4.7V97.67s2.05-4.1,9-4.79C372.79,92.32,382.73,92.53,386.17,92.61Z"/><path class="cls-15" d="M362.62,104.88c-1.23.1-2.39.18-3.45.23a44.29,44.29,0,0,1-5.4.19c-3.19-.34-6.27-5.92-5.47-9.34a1.91,1.91,0,0,1,.12-.4,21.88,21.88,0,0,0,6.5,6.59A22.42,22.42,0,0,0,362.62,104.88Z"/><path class="cls-18" d="M389.93,123.83c-1.28-2.37-1.28-6.89-1.28-6.89s-4.9,14.36-10.82,15.5c-5.76,1.12-8.07-.57-9.88-2.13a12.61,12.61,0,0,1,.7,4.2,8.52,8.52,0,0,0,4.21,1.71C380.78,136.22,386.09,130.55,389.93,123.83Z"/><path class="cls-13" d="M389.38,122.81c-3.84,6.73-8.54,13-16.46,13a7.65,7.65,0,0,1-4.27-1.26c0,.27-2.46,1.18-2.48,1.45-.23,2.11.48,6.21,1.19,9.31.67,3,1.25,5.75,1.25,5.75s2.56,2.26,2.58,2.25c.45-.36,11.34-8.63,13-11.37s6.13-14.61,7.44-16.67C390.89,125.14,389.79,123.57,389.38,122.81Z"/><path class="cls-19" d="M396.79,130.15c-1.63,2.86-6.4,16.17-5.95,18,.51,2.05-6.17,1.26-6.86-1.22s-2.08-5-2.86-2.92-9.36,5.28-9.95,5.61c.45-.36,7.76-6.13,9.41-8.88s9.71-13.42,11-15.47a30.39,30.39,0,0,0,2.38-3.78,0,0,0,0,0,0,0c2,1.2,3.16,8,3.16,8Z"/><path class="cls-14" d="M394,121.45a13.92,13.92,0,0,1-2.5,4c-1.83-.46-2.11-2.33-2.39-4C390.13,121.13,392.73,120.7,394,121.45Z"/><path class="cls-19" d="M359.41,156.56s-2.11-8.14-.29-11.66c.06-.11,0-.27,0-.42.16-3.5,6.2-13.93,7.22-15.66.53.53,1,1,1.44,1.35l.16.14a11.94,11.94,0,0,1,.67,5c-.23,2.11.44,5.8,1.15,8.91-2-.23-.12,9.09-1.82,10C365.38,155.59,359.41,156.56,359.41,156.56Z"/><path class="cls-17" d="M424.48,181.89c-5.23,2.37-10-2.22-14.74,1.81l.85,37.54a91,91,0,0,0-13.81,3.86c-3.59,1.24-17.16,6.93-17.17,6.93a88.58,88.58,0,0,1-13,4.13,10.51,10.51,0,0,1-9.49-3.07,2.86,2.86,0,0,1-.52-.9c-.63-1.81-1.16-6.3-1.6-12.18h0c-.65-8.79-4.67-13.82-5-24.27l-3.68-10.55L343.91,184s3.67-15.05,4.26-20.78,4.54-13.42,6.74-15.21c1.29-1.05,3-2.5,4.21-3.5a2,2,0,0,0,0,.42c.42,3.14,3.81,5,4,5.12-.2-.28-2.82-4-.35-5.3,1.7-.9,5-.72,7-.49.67,3,1.38,5.36,1.38,5.36h0c.59-.33,9.94-5.61,10.68-7.59s1.81-.85,2.49,1.63,5.21,4.78,4.71,2.73c-.45-1.79,6.1-13.34,7.73-16.2,6.23,1.91,22.35,7.23,27.15,13.12,6,7.36,6.94,22.42,9.16,32.5C430.67,179.15,426.94,180.77,424.48,181.89Z"/><path class="cls-20" d="M424.37,174.09a61,61,0,0,0-14.63,9.62l.85,37.54a19.15,19.15,0,0,0-3.32-.23c-3.27,0-9.21,1-22.07,6.34-1.89.78-4.13,1.55-6.29,2.52h0c5.28-14.92,18.88-12.29,22.8-19.67s3-26.95,1.72-35.82c-1.85-13.09,6-25.41,6.32-26-.29.87-10.26,31.33,14.75,25.42C424.44,173.92,424.41,174,424.37,174.09Z"/><path class="cls-21" d="M412.25,229.15a80.37,80.37,0,0,1-14.49,4.74c-6.84,1.34-18.24,8.47-27,9.41a19.12,19.12,0,0,1-14.49-4.7l.77-5.51c4.6,5.77,30.48-7.2,39-10.14,8.89-3.08,14.53-1.71,14.53-1.71Z"/><path d="M361.9,410c-.26,2.07-.75,3.72-1.64,4.09-2.74,1.14-39.21,1.94-43.89,1.48-4.1-.4-7.13-1.41-7.14-5.47,2.62-2.13,7.75-1.74,15.7-1.59C334.8,408.73,349.77,406.47,361.9,410Z"/><path class="cls-14" d="M361.9,410c-7,.74-27.69,2.79-37.55,2.61-7.95-.15-12.57-1.56-15.12-2.52a11.49,11.49,0,0,1,.19-1.93c1-5.7,15.61-4.34,19.6-5.47,2.64-.77,5.28-5.69,6.76-9,.4.67,5.49-3,6.06-2.23,5.61,7.21,16.09,12.59,20.3,12.75A42.33,42.33,0,0,1,361.9,410Z"/><path d="M420.32,414.67c0,1.68-.3,3.05-1,3.57-2.28,1.71-43.67,3.31-43.67,3.31s-3.28-1.4-2.81-4.68C381.49,417.07,399.35,414.2,420.32,414.67Z"/><path class="cls-14" d="M420.32,414.67c-19,3.38-39,3.37-47.65,3.16a2.05,2.05,0,0,1,0-.27c.68-3.53,1.25-4.21,7.18-6.25s8.66-3,10.71-7.43c1.48-3.19,4.82-7,6.59-8.84a1.35,1.35,0,0,1,0,.4c-.22,1.6,2.71,1.4,11.82,5.29,4.43,1.89,9.89,10.45,11,9A34.45,34.45,0,0,1,420.32,414.67Z"/><path class="cls-22" d="M248.14,204.53c-.77,1.16-1.43,2.25-2,3.15a30.05,30.05,0,0,0-2.78,5.64s0,0,0,0a.13.13,0,0,0,0,.07,3.6,3.6,0,0,0-.15.43s0,0,0,0c-.51,1-2.28,3-8.18.83-3.33-1.19-7-3-11-4a90.09,90.09,0,0,1,6.35-11.6A56.1,56.1,0,0,1,248.14,204.53Z"/><path class="cls-22" d="M262.43,280.49c-.89,8.27-3.73,24.65-5.67,31.52a21.45,21.45,0,0,1-1.31,3.37c-8.06-3.37-13.28,4.91-19.39,7.27-6.46,2.47-9.18-2.48-21.22-5a24.67,24.67,0,0,0-7.27-.62c-6.46.64-11,4.58-7,9.73h0c-2.1,2.16-2.21,7.81-2.82,16a78.25,78.25,0,0,1-3.42,16.77c-2.88,0-7.75,7-9.71,3.7-4-6.69,2-10.67-4.47-17.61-2.85-3.08-4.82-10.22-7.82-8.51-.45-4-.89-8-1.31-11.72-24,8.52-50.24,5.49-63.51-2.71a40.25,40.25,0,0,1-4-2.86c-1.48-1.19-3-2.51-4.4-3.91C88.6,305.81,79.33,291.65,76,292.42c-2.72.65-11.28,24.71-16.77,45.82-3,11.49-5.07,22.08-4.8,27.59.73,15.38,9.15,36.27,9.4,36.92l0,0s-15.37,5.69-18.84,2-3.23-15.85-2.23-26.27S35.09,343,34.34,334.58s2.73-10.92,5.21-20.59-3.23-20.57-7.18-38.92c-.27-1.23-.53-2.45-.78-3.69h0c-2.3-11.4-3.75-22.85-2.77-33.19a48.22,48.22,0,0,1,3.55-14.69c4.56-10.64,18.37-17.73,30.26-20.65A46.89,46.89,0,0,1,74,201.35c1.88,0,4.7.1,8.18.19,14.21.39,39.48,1.21,56.93,1.63-5.18,3.64.19,5.51,6.34,8.73,8.6,4.5,25.26-4.25,36-10.2h0c15.83-1.36,33.27-3,42.06-3a53.66,53.66,0,0,1,6.8.43c-2.51,3.74,11.6,6.25,10.07,9.54l10.22,7c-5.37-1.42-10.35,13.71-9.2,14.29v0c-.54,8.88,5.63,19.48,7.17,23.76,1.72,4.82,10.73,15.89,10.74,15.91C260.17,271.7,259.89,279,262.43,280.49Z"/><path class="cls-23" d="M181.47,201.69C177.2,222,131,235.36,133.2,225.9c4.33-18.5-15.84-19.42-10.67-23.07,0,0,28.47.57,31.83.57C160.34,203.4,170.51,202.61,181.47,201.69Z"/><path class="cls-24" d="M242.63,410.94c-1.49,4.21-14.13,4.46-17.85,1.74s-2-15.87-2.23-31.24-4.72-41.66-5.46-46.86-11.16-9.43-14.88-8.69a3,3,0,0,0-1.65.91h0a8.36,8.36,0,0,1,5.65-13.42,24.66,24.66,0,0,1,7.28.61c12,2.48,14.76,7.44,21.22,5,6.11-2.37,12.69-6.95,20.75-3.59-3.75,7.94-12.59,18.51-14.31,20.44-2,2.23-4.72,18.85-6.69,28.27S244.12,406.73,242.63,410.94Z"/><path class="cls-24" d="M189.33,374.75c-4.22,12.39-1.25,37.43-1.25,37.43s-11.65,3.72-15.92,0,.55-20.08,1.79-24.79,1.74-20.34,0-35.71c-.48-4.25-1.06-9.39-1.62-14.58,3-1.71,6.46-2.4,9.31.68,6.44,6.95.49,10.92,4.46,17.62,2,3.32,5.34,4.14,8.23,4.12C192.94,364.23,191.2,369.21,189.33,374.75Z"/><path class="cls-25" d="M88,336.21c-2.25,3.76-3.9,6.41-3.9,6.41s1.12,8.93-2.86,10.18-6.07-6.92-6.07-6.92-.51,6.67-3.72,6.92-1.86-7.32-1.86-7.32l-4.46-2.23a3,3,0,0,1-.48-.27,19.24,19.24,0,0,1-5.39-4.75c5.49-21.11,14-45.17,16.77-45.82,3.33-.77,12.6,13.39,23.09,23.49A229.59,229.59,0,0,1,88,336.21Z"/><path class="cls-26" d="M95.46,334.21c-2.23,4.84,1.37,12.27-1.86,11.68-2.13-.4-4.37-6-5.64-9.67a229.59,229.59,0,0,0,11.13-20.31c1.44,1.4,2.92,2.72,4.4,3.91C100.86,324.77,97,330.93,95.46,334.21Z"/><path class="cls-27" d="M69.8,401.27a20.45,20.45,0,0,1-6,1.49h0c-.25-.65-8.67-21.54-9.4-36.93-.27-5.5,1.82-16.1,4.81-27.58A19.24,19.24,0,0,0,64.62,343c-1.87,5.45-4.84,15.67-4.49,25.07C60.64,381.68,72.54,400,69.8,401.27Z"/><path class="cls-28" d="M24.11,266.07c.26,5.44-5.22,35.12-5.24,54.15a32.16,32.16,0,0,0,4.8,16.16s-2.29-14.9-1.53-24.16c1.12-13.7,8.42-24,8.86-32.19.19-3.53.39-6.37.6-8.64h0c-2.53-12.51-4-25.08-2.41-36.18-1-2.9-2-5.85-3.16-8.6C22.66,240.71,23.78,258.76,24.11,266.07Z"/><path class="cls-23" d="M62.63,202.84s-30.89,5.4-35.54,19.91c-.4,1.24-.75,2.53-1.06,3.84,1.15,2.74,2.11,5.69,3.16,8.6a46.18,46.18,0,0,1,3.18-11.7C36.94,212.85,50.74,205.75,62.63,202.84Z"/><path class="cls-29" d="M214.36,240c-.83,5.53-7.44,7.29-16.36,3.82s-7.19,18.6-12.15,19.69-3.47-4.56-12.15,12.61-.6,26.65-4.46,32.42c-6,9-34.37,14.68-59.71-1.65s-31.47-29-46.9-31.81-27.1-.49-23.1-13,9.46-28.49,18.57-28.5,1.43-15.08,22.43-15.21,15.2-10.94,15.2-10.94l22.13,2.47s15.29,6.67,3.81,20,20.33,12.77,34.86,4.59c14.37-8.1,29.52-23.88,38.17-21.2C202.53,215.7,215,235.8,214.36,240Z"/><path class="cls-30" d="M285.38,209.81a47.4,47.4,0,0,0-3.1-6.33c-.13-.22-.27-.43-.4-.64-4.11-6.31-12.86-8.09-22.35-6.62a19.94,19.94,0,0,0-11.4,6.67,16.78,16.78,0,0,0-1.77,2.54,25.72,25.72,0,0,0-1.56,3.2,0,0,0,0,0,0,0c-5.9,14.46-4.71,41.25-2.9,46.31,1.72,4.82,12.28,16.55,15.56,20.1a9,9,0,0,1-.12-6.53,12.75,12.75,0,0,1,3.53-5.26c3.11-2.73,7.87-4.08,14.5-3.47,1,.08,1.82.18,2.61.29,3.65.48,5.83,1.2,7.18,2.15.46-1.13.91-3.29.8-7.28-.18-7.74,3.72-20.3,4.11-26.27C290.32,224.4,288.1,216.33,285.38,209.81Z"/><path class="cls-23" d="M302.72,210.28c-.76,9.06.79,19.39-13.21,22.44a35.8,35.8,0,0,0,.55-4,24.59,24.59,0,0,0-.62-6,72.11,72.11,0,0,0-3.5-11.55A34.22,34.22,0,0,0,302.72,210.28Z"/><path class="cls-24" d="M272,232.39c-.19-.17-12.34-15.14-17.92-18.09s-6.34-5.81-5.63-7.29,11.8.09,17.52-.56,12.46-3,13.74-1.79S272,232.39,272,232.39Z"/><path class="cls-23" d="M243.2,213.91A136.71,136.71,0,0,0,240.87,228l0,.45c-.06.59-.11,1.09-.13,1.47a10.71,10.71,0,0,0-5.32-1.19c-6.1-.19-12.78,5.74-20.75,0l-.08,0a19.69,19.69,0,0,1-7.89-13.52,12.59,12.59,0,0,1-.1-1.34c6.19-4.59,12-4.53,17.42-3.11h0c4,1,7.69,2.82,11,4C240.92,216.87,242.69,214.95,243.2,213.91Z"/><path class="cls-23" d="M82.2,201.54c-.81,4.58-2.8,8.33-7.16,8.34-11.18,0-27.18.94-25.51,8.47S29.16,243,29.16,243l-.34-4.83a48.22,48.22,0,0,1,3.55-14.69c4.56-10.64,18.37-17.73,30.26-20.65A46.89,46.89,0,0,1,74,201.35C75.9,201.38,78.72,201.45,82.2,201.54Z"/><path class="cls-29" d="M232.11,311.22c7.71,6.05,14.83-3.75,19.54-8.87s11.46-18.88,2.21-24.38-17-5.56-17.8-17-10.68-27.81-13.2-10.75-26.5,13-20.5,29.25-19.73,22-9.75,28.5S215.86,298.47,232.11,311.22Z"/><path class="cls-23" d="M290.06,228.7c-.39,6-4.29,18.53-4.11,26.27a22.82,22.82,0,0,1-1.09,8.19A13.67,13.67,0,0,0,278,260.1c.52-2.62,1.42-7.23,2.41-12.19,1.52-7.64-1.85-15-2.19-19.21s4.84-4.31,6.67-12.89a22.93,22.93,0,0,0,.52-6C288.1,216.33,290.32,224.4,290.06,228.7Z"/><path class="cls-31" d="M287.63,267.25a7.32,7.32,0,0,0-3-5c-1.65-1.16-4-2-9.25-2.44-10.06-.92-15.8,2.65-18,8.73a9,9,0,0,0,.12,6.53v0c0,.08.07.17.1.26.76,2.06,1.26,5.41,3.69,6.81,2.79,1.59,7.83,1,13,1s7.19.37,9.25-1.62c3.07-3,4.17-8.37,4.27-11.88,0-.18,0-.26,0-.25A12,12,0,0,0,287.63,267.25Z"/><path class="cls-21" d="M266.93,274c-.94,0-5-5.41-4.58-7a3.4,3.4,0,0,1,3.76-2.15C269.69,265.16,267.86,274,266.93,274Z"/><path class="cls-21" d="M285.8,266.53c0,1.07-1.59,6-2.51,6.44-1.22.61-4.38-7.65-3.12-8.48S285.82,265.44,285.8,266.53Z"/><path d="M287.67,234.51c-1.63.83-6.81.94-6.81.94s4-8.88,5.81-7.25S289.3,233.7,287.67,234.51Z"/><path class="cls-23" d="M257.45,275.07c-3.28-3.55-13.84-15.28-15.56-20.1-1.81-5.06-3-31.85,2.9-46.31-1.32,5.77.52,13.18,5.85,16.31,8.73,5.12,6.34,10.83,4.47,18-1.58,6.09,4,17,5.75,20.27a12.75,12.75,0,0,0-3.53,5.26A9,9,0,0,0,257.45,275.07Z"/><path d="M252.65,236.17c-6.15-.34-8.48-4.57-8.06-6.41s2.42-2.5,4.65-2S253,236.19,252.65,236.17Z"/><path class="cls-23" d="M245.57,206v.64A.53.53,0,0,1,245.57,206Z"/><path class="cls-23" d="M282.28,203.48c-4.59-1.42-7.76-2.14-12.79-.64-6.12,1.84-11.5-.21-17.84,0-2.25.08-4.56,2.29-5.29,2.58a16.78,16.78,0,0,1,1.77-2.54,19.94,19.94,0,0,1,11.4-6.67c9.49-1.47,18.24.31,22.35,6.62C282,203,282.15,203.26,282.28,203.48Z"/><ellipse class="cls-24" cx="248.74" cy="232.6" rx="1.25" ry="1.49"/><ellipse class="cls-24" cx="285.28" cy="232.6" rx="1.25" ry="1.49"/><path class="cls-32" d="M287.76,269.68c-.1,3.51-1.2,8.9-4.27,11.88-2.06,2-4.15,1.69-9.25,1.62s-10.2.57-13-1c-2.43-1.4-2.93-4.75-3.69-6.81,2.85.49,8.42,4.42,17.55,4.25C286.51,279.36,287.65,271.2,287.76,269.68Z"/><path class="cls-31" d="M302.72,210.28c-.76,9.06.79,19.39-13.21,22.44a35.8,35.8,0,0,0,.55-4,24.59,24.59,0,0,0-.62-6C301.33,221.47,302.72,210.28,302.72,210.28Z"/><path class="cls-31" d="M241.24,223.91l-.37,4.06,0,.45-.13,1.47a10.71,10.71,0,0,0-5.32-1.19c-6.1-.19-12.78,5.74-20.75,0l-.08,0a19.69,19.69,0,0,1-7.89-13.52C217.72,223.64,241.24,223.91,241.24,223.91Z"/><path class="cls-33" d="M241.61,402.76c-7.51-2.39-19.16,2.06-19.16,2.06v6a3.6,3.6,0,0,0,3.6,3.6h21.43Z"/><path class="cls-33" d="M187.2,400.38c.06.27-16.77,3.65-16.77,3.65l-.94,5.65a3.6,3.6,0,0,0,3.52,4.19l19.52.16Z"/><path class="cls-33" d="M68.62,395.45c.06.27-16.87,1.51-16.87,1.51l-.94,5.65a3.6,3.6,0,0,0,3.52,4.19l19.52.16Z"/><path class="cls-33" d="M59.29,395.45c.06.27-16.87,1.51-16.87,1.51l-.94,5.65A3.6,3.6,0,0,0,45,406.8l19.52.16Z"/><path class="cls-24" d="M76,292.41s-15.39-6.2-15.14,7.55-20.25,11-13.5,27,8.15,27.87,8.15,27.87Z"/><path class="cls-24" d="M76,228.56c-7,3.43-5.14,6-11.81,12.16s-15.3,10-1.57,15.17,13.9-11.83,20.9.33,13.17,23.17,17.67,11.17,20.33-18.08,9.67-24.54,1.83-20.16-10-14.15S88,222.73,76,228.56Z"/><path class="cls-13" d="M432.32,254c-2.54-4.46.16-10.62,0-19s-1.67-23.8-1.67-23.8,2.46-26.09-1.35-39.09c-11.83-5.15-18.78,10.89-18.78,10.89s4.53,16.55,4.73,28.28c0,2.79-.47,11.91,2.35,19.61,4.45,12.15,6,18.63,2.9,23.6s-3.06,6-1.19,10.26,2,5.65,2.8,7.52a1.51,1.51,0,0,0,1,.86,5,5,0,0,0,.51,2.9c1.19,1.89,6.48.52,8.73,0s3.91-7.52,4.43-10.94S434.86,258.48,432.32,254Zm-5.66,15.7a47.33,47.33,0,0,0-1.18-5.92l2.72,4.75Z"/><path class="cls-34" d="M421.14,405.94a6.81,6.81,0,0,1-1.12,3.74c-1.11,1.49-3.34,2.48-7.77.59-9.12-3.88-19.27-11.11-19.27-11.11s-1.64-31.12-.34-45.21c1.37-14.82-.94-20.86-3.45-29.06s-7.5-51.17-7.5-51.17l0,.05c-.37,1.4-9.11,34.21-14.31,53.95,0,2.74-1.94,56.31-5.21,76.59-3.14-.11-12.29-.72-19.08-4a16.07,16.07,0,0,1-5.83-4.42,18.73,18.73,0,0,1-1.45-2.12c-3.92-6.69,1-9.58,1.45-10.19s2.73-12.1,5.13-25.78-3.53-12.53-2.63-18.23,3.88-6.84,2.74-12.55,6.84-36.47,8-47.41,5.85-41,5.85-41a44.67,44.67,0,0,0,14.84.69c8.73-1,20.12-8.08,27-9.42a58.71,58.71,0,0,1,14.14-.72,171.71,171.71,0,0,1,4.78,21.5c3.16,21.56-.79,42.12,0,78.39C417.86,367.78,421.14,405.94,421.14,405.94Z"/><path class="cls-20" d="M365.85,234c-4.14.85-7.41.8-8.78-.92a2.86,2.86,0,0,1-.52-.9c-.63-1.81-1.16-6.3-1.6-12.18h0c-.65-8.79-1.12-20.65-1.43-31.1-.17-5.39-.29-10.41-.37-14.44C353,168.74,353,165,353,165l3.77,24.68S356.57,225.55,358,229,361.46,233.06,365.85,234Z"/><polygon class="cls-15" points="358.24 103.73 381.44 101.47 379.53 103.43 358.61 105.15 358.24 103.73"/><path class="cls-35" d="M381.67,273.77c-.37,1.4-9.11,34.21-14.31,53.95,0,2.74-1.94,56.31-5.21,76.59-3.14-.11-12.29-.72-19.08-4,24.3-7.78,16.91-59,19.09-69.11C364.41,320.75,381.05,275.46,381.67,273.77Z"/><path class="cls-36" d="M407.53,231.9s.22.8.58,2.43"/><path class="cls-37" d="M409,239.09a256.45,256.45,0,0,1,3.22,38c.61,30.48-.95,46.28,0,63.55.76,13.91,3.36,48.16,4.35,60.94"/><path class="cls-36" d="M416.78,404l.19,2.49"/><ellipse cx="378.03" cy="110.66" rx="1.25" ry="1.79" transform="translate(-4.78 17.88) rotate(-2.69)"/><ellipse cx="365.08" cy="111.48" rx="1.25" ry="1.79" transform="translate(-4.83 17.27) rotate(-2.69)"/><path d="M374.82,107.28a3.24,3.24,0,0,1-.31-1.62c.15-.48,5.16-.85,6.19-.48a8.63,8.63,0,0,1,2.44,2s-3.25-.76-3.41-.67S374.82,107.28,374.82,107.28Z"/><path d="M367.87,107.59A11,11,0,0,0,368,106a31.77,31.77,0,0,0-5.4,0,17.45,17.45,0,0,0-2.26,2.46l2.93-1Z"/><path class="cls-38" d="M370.28,112.6a5.17,5.17,0,0,1,.41,2.06,3.76,3.76,0,0,1-.71,2.08,4.77,4.77,0,0,1-.75.82l-.4.34-.14.13s0,0,0-.07,0-.16,0-.13a1.63,1.63,0,0,0,.2.24,3,3,0,0,0,.34.3,4.4,4.4,0,0,0,.79.49,3.06,3.06,0,0,0,.83.28,1.46,1.46,0,0,0,.83-.08c.65-.18,1.29-.38,1.95-.55l.49-.13a.55.55,0,0,0,.26-.16.58.58,0,0,0,0-.65,4,4,0,0,1-.81-1.91,4.51,4.51,0,0,0,1.19,1.64,1.12,1.12,0,0,1,.1,1.28,1.13,1.13,0,0,1-.54.46l-.49.19c-.65.26-1.31.48-2,.72a2.25,2.25,0,0,1-1.19.13,3.92,3.92,0,0,1-1.11-.35,5.33,5.33,0,0,1-.95-.61,3.87,3.87,0,0,1-.42-.39,1.58,1.58,0,0,1-.39-.6.7.7,0,0,1,0-.38.82.82,0,0,1,.18-.28,2.22,2.22,0,0,1,.25-.21l.41-.3a5.68,5.68,0,0,0,.7-.64A4.47,4.47,0,0,0,370.28,112.6Z"/><path class="cls-24" d="M367.36,123l9.87-.46s-1.77,3.55-5,3.87C368.73,126.74,367.36,123,367.36,123Z"/><path class="cls-39" d="M375.65,110.61s.77-3,5.51-.65"/><path class="cls-39" d="M367.69,110.8s-3.23-2-5.27.25"/><path class="cls-40" d="M302.72,235.9s-.12,5.76-14.42,2.82"/><path class="cls-13" d="M355,220h0l-32.85,15.76s-.94,5.57-2.57,6.84-2.74,3.52-5.64,3.78S310,245,310,245a3.15,3.15,0,0,1-3.42-1.37,2.56,2.56,0,0,1-2.82-2.09c-3.45-1.76-.82-5.55-.62-5.86a1.87,1.87,0,0,1-2.8-.78c-1-2,3.76-5,3.76-5s-.6-1.79,2.23-3,8.89,1.37,8.89,1.37L346.3,205V185.19l7.22,3.72C353.83,199.36,354.3,211.22,355,220Z"/><path class="cls-18" d="M303.12,235.7a6.6,6.6,0,0,1,1-.81,3.7,3.7,0,0,1,1.22-.53,1.64,1.64,0,0,1,1.88,1.7l-.28-.21a2.5,2.5,0,0,1,1.73-.07,1.93,1.93,0,0,1,.75.5,1.26,1.26,0,0,0,.58.34,2.57,2.57,0,0,1,2.41,2.13l-.22-.16a2,2,0,0,1,1,.28,2,2,0,0,1,.71.82,6.37,6.37,0,0,1,.47,1.95,11.56,11.56,0,0,1,.13,2,10.88,10.88,0,0,1-.21,1.94,14.1,14.1,0,0,0-.24-3.85,6.7,6.7,0,0,0-.52-1.8,1.42,1.42,0,0,0-1.37-.83h-.17l-.06-.17a2.87,2.87,0,0,0-.73-1.27,3.16,3.16,0,0,0-1.38-.55,1.74,1.74,0,0,1-.78-.48,1.47,1.47,0,0,0-.57-.39,2.22,2.22,0,0,0-1.42,0l-.31.1,0-.31a1.26,1.26,0,0,0-.38-1,1.31,1.31,0,0,0-1.07-.38A5.39,5.39,0,0,0,303.12,235.7Z"/><path class="cls-18" d="M304.06,229.88c.36.63.64,1.25.95,1.86s.61,1.2,1,1.82a3.6,3.6,0,0,1-1.42-1.6A4.68,4.68,0,0,1,304.06,229.88Z"/><path class="cls-18" d="M306.5,236.17a3.6,3.6,0,0,0-1.19.8,2.56,2.56,0,0,0-.63,1.19c-.25.92-.38,1.9-.61,2.89a7.21,7.21,0,0,1-.09-1.51,6.58,6.58,0,0,1,.22-1.51,2.42,2.42,0,0,1,2.31-1.85Z"/><path class="cls-18" d="M309.19,237.15a18.94,18.94,0,0,1-1.56,1.16l.09-.12-.58,2.4a11.81,11.81,0,0,0-.43,2.42,3.22,3.22,0,0,1-.15-1.26,9.14,9.14,0,0,1,.13-1.25,15,15,0,0,1,.64-2.42l0-.09.06,0A19,19,0,0,1,309.19,237.15Z"/><path class="cls-18" d="M311.37,239.29a3.37,3.37,0,0,0-.91,1,2.34,2.34,0,0,0-.28,1.21c-.06.9-.08,1.82-.22,2.74a7.77,7.77,0,0,1-.25-1.38,8.81,8.81,0,0,1,0-1.4,2.12,2.12,0,0,1,1.69-2.14Z"/><path class="cls-40" d="M338.86,278c0-17.51-.69-36.24-24.38-35"/></g><g id="Слой_6" data-name="Слой 6"><g class="cls-41"><path class="cls-38" d="M389.25,108.12a14,14,0,0,1,.68-1.49,1.63,1.63,0,0,1,.61-.64.69.69,0,0,1,.93.26,8.46,8.46,0,0,1,.53,3.29,11.86,11.86,0,0,1-.41,3.28,5.42,5.42,0,0,1-.69,1.52,1.74,1.74,0,0,1-1.41.8,1.71,1.71,0,0,0,1.2-.93,5.21,5.21,0,0,0,.52-1.48,17.75,17.75,0,0,0,.21-4.78,5.68,5.68,0,0,0-.3-1.51c0-.17-.28-.23-.47-.15a1.41,1.41,0,0,0-.54.49C389.81,107.18,389.56,107.68,389.25,108.12Z"/></g><g class="cls-41"><path class="cls-38" d="M390.73,109.08a1.35,1.35,0,0,0-.83.15.84.84,0,0,0-.49.51c0,.17.11.25.41.42a5.83,5.83,0,0,1,.74.55,2,2,0,0,1,.33.39.58.58,0,0,1,0,.69,1.29,1.29,0,0,1-.46.26l-.36.2a1.49,1.49,0,0,0-.55.56c-.14.21.15.4.44.47a.9.9,0,0,1-.46-.06.41.41,0,0,1-.22-.47,1.71,1.71,0,0,1,.55-.8,2.09,2.09,0,0,1,.39-.28c.16-.09.29-.14.3-.18s-.09-.24-.3-.41a6.32,6.32,0,0,0-.67-.52,2.28,2.28,0,0,1-.39-.31.6.6,0,0,1-.14-.6A1.26,1.26,0,0,1,390.73,109.08Z"/></g></g></g></svg>