<svg xmlns="http://www.w3.org/2000/svg" xmlns:xlink="http://www.w3.org/1999/xlink" viewBox="0 0 500 500"><defs><style>.cls-1,.cls-24,.cls-5{fill:none;}.cls-2{isolation:isolate;}.cls-3{clip-path:url(#clip-path);}.cls-4,.cls-7{fill:#c1f2ff;}.cls-5{stroke:#c1f2ff;stroke-width:2.08px;}.cls-24,.cls-5{stroke-miterlimit:10;}.cls-5,.cls-6,.cls-7{opacity:0.45;mix-blend-mode:screen;}.cls-8{fill:#f2ff20;}.cls-9{fill:#e2bd88;}.cls-10{fill:#66553d;}.cls-11{fill:#fff;}.cls-12{fill:#ccab7b;}.cls-13{fill:#8a9112;}.cls-14{fill:#a3ad24;}.cls-15{fill:#6f3128;}.cls-15,.cls-34,.cls-38,.cls-40,.cls-41{mix-blend-mode:multiply;}.cls-16{fill:#cad451;}.cls-17{fill:#a2ac00;}.cls-18{fill:#bdc719;}.cls-19{fill:#89551c;}.cls-20{fill:#260e10;}.cls-21,.cls-38{fill:#4f250e;}.cls-22{fill:#664015;}.cls-23{fill:#f35b3a;}.cls-24{stroke:#4d240e;}.cls-25{fill:#ffd4a3;}.cls-26{fill:#ffedd9;}.cls-27{fill:#c44a2f;}.cls-28{fill:#ede34d;}.cls-29{fill:#f5ffa6;}.cls-30{fill:#4098d3;}.cls-31,.cls-40{fill:#4e1d20;}.cls-32,.cls-41{fill:#3277a6;}.cls-33{fill:#2e6e99;}.cls-34{opacity:0.5;}.cls-35{fill:#57280f;}.cls-36{fill:#1a090b;}.cls-37{fill:#1c0a0c;}.cls-38,.cls-40,.cls-41{opacity:0.4;}.cls-39{fill:#282723;}.cls-42{fill:#f4d8cd;}</style><clipPath id="clip-path"><path class="cls-1" d="M480.38,319.39A262.85,262.85,0,0,1,477,345.52c-.53,2.91-1.1,5.81-1.73,8.69-4,18.58-10,34.65-18,48.5-33.69,58.91-102,77.57-201.52,77.57-80.42,0-172.77-22.66-214.85-76.63A106.32,106.32,0,0,1,18.22,346c-.09-1.07-.16-2.14-.22-3.21a117.57,117.57,0,0,1,1-23.41c2.27-15.88,7.87-32.06,17.36-48.28,1-1.71,2-3.4,3.12-5.11q1.44-2.28,3-4.56c1.55-2.3,3.2-4.6,4.93-6.89a249,249,0,0,0,16.09-24.26c3.62-6.14,6.93-12.33,10-18.52q2.52-5.05,4.85-10.1s0,0,0,0c2.91-6.28,5.62-12.54,8.21-18.74.62-1.47,1.22-2.93,1.82-4.38l.62-1.52c1.82-4.45,3.58-8.86,5.32-13.22,1.13-2.85,2.25-5.66,3.38-8.47,2.9-7.24,5.84-14.5,9-21.68,3.8-8.84,7.85-17.56,12.35-26,1.36-2.54,2.75-5,4.21-7.52,8.92-15.29,19.63-29.24,33.47-40.53a115.36,115.36,0,0,1,12.38-8.82c13.77-8.5,30.24-14.67,50.33-17.61a189.59,189.59,0,0,1,25.22-1.94l2.93,0q7.86,0,15.49.57h0q6.69.49,13.19,1.41,3.8.54,7.53,1.21l.92.17c2.59.48,5.15,1,7.69,1.58,1.29.29,2.57.59,3.85.91s2.28.58,3.42.89c.68.17,1.35.35,2,.55l.92.25q4.08,1.16,8.07,2.48,3.07,1,6.09,2.12l1.49.56A198.31,198.31,0,0,1,339.2,53.2h0q3.57,1.83,7.07,3.8a212.84,212.84,0,0,1,21,13.5,233.17,233.17,0,0,1,23.55,19.66q4.08,3.86,8,7.93a270.63,270.63,0,0,1,23.44,28,297.37,297.37,0,0,1,17.36,26.59h0q4.29,7.37,8.17,15,5.14,10,9.58,20.37c4.23,9.81,8,19.81,11.25,29.91.1.33.21.65.31,1,.2.62.39,1.24.59,1.88a259.21,259.21,0,0,1,7.68,31.52c.38,2.15.74,4.29,1.06,6.44q1.5,9.8,2.23,19.57A262,262,0,0,1,480.38,319.39Z"/></clipPath></defs><title>2SVG</title><g class="cls-2"><g id="Слой_6" data-name="Слой 6"><g class="cls-3"><path class="cls-4" d="M480.38,319.39H19c2.27-15.88,7.87-32.06,17.36-48.28,1-1.71,2-3.4,3.12-5.11q1.44-2.28,3-4.56c1.55-2.3,3.2-4.6,4.93-6.89a249,249,0,0,0,16.09-24.26c3.62-6.14,6.93-12.33,10-18.52q2.52-5.05,4.85-10.1s0,0,0,0c2.91-6.28,5.62-12.54,8.21-18.74.62-1.47,1.22-2.93,1.82-4.38l.62-1.52c1.82-4.45,3.58-8.86,5.32-13.22,1.13-2.85,2.25-5.66,3.38-8.47,2.9-7.24,5.84-14.5,9-21.68,3.8-8.84,7.85-17.56,12.35-26,1.36-2.54,2.75-5,4.21-7.52,8.92-15.29,19.63-29.24,33.47-40.53a115.36,115.36,0,0,1,12.38-8.82c13.77-8.5,30.24-14.67,50.33-17.61a189.59,189.59,0,0,1,25.22-1.94l2.93,0q7.86,0,15.49.57h0c8.35-4.15,16.64-7.64,24.46-9.36H305.9a34.13,34.13,0,0,1,10.3,4.88c5.16,3.53,9.64,8.35,14,13.77,3,3.81,6,7.92,9,12.09h0q3.57,1.83,7.07,3.8a212.84,212.84,0,0,1,21,13.5,233.17,233.17,0,0,1,23.55,19.66q4.08,3.86,8,7.93a270.63,270.63,0,0,1,23.44,28,297.37,297.37,0,0,1,17.36,26.59h0q4.29,7.37,8.17,15,5.14,10,9.58,20.37c4.23,9.81,8,19.81,11.25,29.91.1.33.21.65.31,1,.2.62.39,1.24.59,1.88a259.21,259.21,0,0,1,7.68,31.52c.38,2.15.74,4.29,1.06,6.44q1.5,9.8,2.23,19.57A262,262,0,0,1,480.38,319.39Z"/><path class="cls-5" d="M119.07,107.69c25.85,3.89,19.21,52.78,113.39-28.35C264.16,52,356,80.5,387,112.65c8.67,9,21.72,13.88,35.22,13.44"/><g class="cls-6"><path class="cls-4" d="M73.63,211.57c4.08,1.15,8.17,2.24,12.29,3.19s8.26,1.73,12.42,2.38,8.3,1,12.53,1.25,8.42.37,12.62.39,8.39-.13,12.55-.48a103.72,103.72,0,0,0,12.39-1.7l3-.66c1-.22,2-.55,3-.8l3-.82,1.51-.41,1.48-.48c4-1.33,7.88-2.79,11.77-4.42,7.8-3.18,15.61-6.65,23.63-9.52a243.44,243.44,0,0,1,24.42-7.43,217.24,217.24,0,0,1,25-4.83,161.78,161.78,0,0,1,25.52-1.45,114.89,114.89,0,0,1,25.47,3.36,92,92,0,0,1,23.94,9.74c1.89,1.07,3.68,2.28,5.5,3.48s3.53,2.52,5.2,3.92l1.27,1,1.22,1.07c.81.73,1.65,1.42,2.42,2.18l2.33,2.27.29.28.26.22.51.43.5.44c.18.14.39.25.58.38a29.52,29.52,0,0,0,11,3.94,74,74,0,0,0,12.28,1.06c4.15.06,8.31-.13,12.47-.48s8.3-1,12.43-1.64,8.24-1.54,12.3-2.59c2-.47,4.05-1.07,6.08-1.6s4-1.17,6-1.85c4-1.29,7.93-2.76,11.83-4.32s7.72-3.34,11.43-5.32,7.38-4.05,10.9-6.35l2.62-1.76c.87-.6,1.7-1.25,2.55-1.87,1.73-1.22,3.32-2.61,5-3.92l.28.3a93.24,93.24,0,0,1-9.66,8.35c-.83.67-1.71,1.27-2.59,1.89s-1.73,1.25-2.63,1.83c-1.79,1.16-3.58,2.33-5.44,3.38A143.11,143.11,0,0,1,414,214.51a162,162,0,0,1-24.74,6.91c-4.21.83-8.47,1.45-12.74,1.92s-8.59.68-12.93.67a74.57,74.57,0,0,1-13-1.14,32,32,0,0,1-12.69-4.75c-.25-.17-.5-.32-.74-.51l-.69-.61-.69-.62-.34-.31-.27-.27-2.19-2.2c-.73-.74-1.52-1.4-2.27-2.11l-1.15-1-1.19-1c-1.57-1.35-3.24-2.57-4.89-3.81s-3.4-2.36-5.19-3.4a94.64,94.64,0,0,0-22.8-9.92c-4-1.12-8.1-2-12.22-2.77a124.4,124.4,0,0,0-12.49-1.49,153.58,153.58,0,0,0-50.11,5.31c-2,.53-4.07,1.15-6.09,1.76s-4,1.26-6,2q-6,2.1-11.81,4.56c-7.81,3.21-15.33,7-23.1,10.55-3.89,1.73-7.87,3.39-11.95,4.74l-1.54.51-1.56.43-3.12.87c-1,.28-2.07.6-3.13.82l-3.18.65A117.7,117.7,0,0,1,123.42,222c-4.28-.11-8.54-.42-12.78-.83-2.11-.22-4.25-.42-6.37-.73s-4.23-.69-6.33-1.12c-4.19-.84-8.32-2-12.39-3.19s-8.1-2.61-12.05-4.16Z"/></g><path class="cls-7" d="M398.8,98.09c-10.15-2.28-18.62-4.28-23.52-5.64-21.34-5.89-42-39.11-85.25-35.09s-93.46,14.45-125.29,5.13a69.13,69.13,0,0,1-8-2.85,115.36,115.36,0,0,1,12.38-8.82c11.28,4,22,7.16,34,7.19,15.77,0,38.13-15.33,60-26.19h0c8.35-4.15,16.64-7.64,24.46-9.36a38.91,38.91,0,0,1,16.18-.53c.73.15,1.45.32,2.15.53,14.29,4,23.27,17.06,33.3,30.74h0C349.1,66.69,360,80.76,378,87.32a54.11,54.11,0,0,0,12.8,2.84Q394.9,94,398.8,98.09Z"/><path class="cls-7" d="M410.47,173.36c-8.8,7-15.39,12.45-19.14,13.2C314.81,201.85,339.44,130.3,298,147s-168.08,35.2-204.07,36c-2.55.06-5,0-7.26-.13.62-1.47,1.22-2.93,1.82-4.38,8.46-.05,19.91-1.76,35.55-5.89,93.41-24.68,38.43-40,190-41C366.85,131.26,385.17,162.74,410.47,173.36Z"/><path class="cls-7" d="M447.77,167.65c-3.18,4.09-6.67,7.16-10.7,8a42.56,42.56,0,0,1-26.6-2.32c8-6.39,17.91-14.09,29.13-20.67Q443.89,160.05,447.77,167.65Z"/><path class="cls-8" d="M407.7,342.31l-211.5,4.44-8.17.17L22.92,350.39S20.84,347.6,18,342.8a117.57,117.57,0,0,1,1-23.41c2.27-15.88,7.87-32.06,17.36-48.28,1-1.71,2-3.4,3.12-5.11q1.44-2.28,3-4.56c1.55-2.3,3.2-4.6,4.93-6.89a249,249,0,0,0,16.09-24.26,178.09,178.09,0,0,1,22.94-1.66,312.53,312.53,0,0,1,53.21,4.45c1.54.24,3.09.5,4.65.77l4,.71Q156,236,164,237.68c1,.2,2,.42,2.93.64q5.59,1.23,11.36,2.65,3,.72,6,1.49l6,1.56,5,1.34,3.1.84q8.85,2.43,17.25,4.88l3.22.94c26.83,7.93,50.21,16,70.51,24h0c41,16.07,69.45,31.48,88.13,43.39C399.12,333.2,407.7,342.31,407.7,342.31Z"/><polygon class="cls-9" points="181.28 187.93 148.72 215.72 119.97 270.96 220.74 262.56 211.37 211.49 181.28 187.93"/><polygon class="cls-9" points="79.3 261.26 79.3 272.95 127.01 279.75 220.74 275.28 220.74 262.56 128.87 265.1 79.3 261.26"/><polygon class="cls-10" points="181.28 187.93 111.85 187.93 90.83 206.75 82.9 246.59 70.15 260.98 128.87 265.1 140 251.83 148.72 215.72 181.28 187.93"/><polygon class="cls-11" points="70.15 260.98 70.15 265.1 131.15 269.07 143.94 253.18 152.51 217.04 181.28 192.23 212.17 215.88 211.37 211.49 181.28 187.93 148.72 215.72 140 251.83 128.87 265.1 70.15 260.98"/><polygon class="cls-12" points="181.28 192.23 181.28 196.16 209.1 218.06 217.89 262.76 217.62 275.43 220.74 275.28 220.74 262.56 212.17 215.88 181.28 192.23"/><polygon class="cls-12" points="181.28 196.16 152.51 217.04 181.28 192.23 181.28 196.16"/><polygon class="cls-10" points="163.97 277.99 163.97 233.83 198.34 233.83 198.34 276.35 163.97 277.99"/><polygon class="cls-11" points="166.9 277.85 166.9 236.25 195.24 236.25 195.24 276.5 198.34 276.5 198.34 233.83 163.97 233.83 163.97 277.99 166.9 277.85"/><polygon class="cls-11" points="166.13 250.21 196.28 250.21 196.28 254.34 164.87 254.34 166.13 250.21"/><polygon class="cls-11" points="166.9 252.28 195.24 236.25 187.75 235.61 164.87 248.53 166.9 252.28"/><rect class="cls-10" x="159.58" y="215.15" width="41.44" height="9.65"/><path class="cls-13" d="M233.71,403.29l-192.82.36A106.32,106.32,0,0,1,18.22,346c-.09-1.07-.16-2.14-.22-3.21a117.57,117.57,0,0,1,1-23.41c2.27-15.88,7.87-32.06,17.36-48.28,1-1.71,2-3.4,3.12-5.11q1.44-2.28,3-4.56c1.52-.18,3.07-.31,4.66-.39a83.14,83.14,0,0,1,23,2.18c2.94.68,5.88,1.49,8.82,2.45l.33.1a145.21,145.21,0,0,1,24.33,10.65c20.08,10.91,39.66,26.46,57.28,43,9.72,9.1,18.84,18.48,27.12,27.53q2.07,2.27,4.07,4.5c10.82,12.07,20,23.34,27,32.27C228.36,395.55,233.71,403.29,233.71,403.29Z"/><path class="cls-13" d="M480.38,319.39A262.85,262.85,0,0,1,477,345.52c-.53,2.91-1.1,5.81-1.73,8.69-4,18.58-10,34.65-18,48.5l-238.17-19-48.27-3.86s7-11.83,21.28-28.41q1.95-2.28,4.1-4.67A313.83,313.83,0,0,1,224,319.39c5.79-5,12-10.11,18.8-15.11q3.73-2.78,7.68-5.51,4.43-3.08,9.12-6.08A287,287,0,0,1,289.32,276h0c1.74-.85,3.51-1.68,5.29-2.5a279.18,279.18,0,0,1,102.9-25.19q1.89-.11,3.72-.15c23.88-.84,41.82,2.63,55.1,9.05a56.88,56.88,0,0,1,24.13,21.1A262,262,0,0,1,480.38,319.39Z"/></g><path class="cls-14" d="M468.39,436.8s14.75-93.35-211.12-107.58C-4.9,312.71,21.38,433.06,21.38,433.06Z"/><path class="cls-15" d="M29.59,450.62s37.78,36.7,53.11,32.49,29.9-14.55,41.64-.92,60.44,15.2,102.63,12.57c34.9-2.18,74.06-20.08,84.61-18.5s29.71,3.34,46.92,7.71C370.56,487,383.29,465.6,394,469.5s21.37,7.81,32.37,6.76,42.05-39.45,42.05-39.45S80.06,430.39,29.59,450.62Z"/><path class="cls-16" d="M238.62,480c-60.73,7.88-153.69,2.35-124.9-32-12.52-13.29-110.83,24.25-94-15.72,16-38,100-32.15,151.65-30q17.15.74,32,2.28c56.21,5.78,103.65,15.87,105.19,42.33S259.42,477.24,238.62,480Z"/><path class="cls-17" d="M449.83,450.14c-46,13.77-116.33,30.34-169.39,0,28.5,5.42,68.87-2.75,87.65-16.43C386.1,420.61,420.86,435.58,449.83,450.14Z"/><path class="cls-18" d="M449.85,450.14h0c-39.52,6.21-61.13-23.78-90-6.13-19.82,12.12-50.88,11.55-79.38,6.13,9.64-2.76,15.27-5.56,14.71-8.13-3.87-17.72-35.51-31.67-91.71-37.45,15.93-7.82,46.11-19,89.11-19.86,66.43-1.3,166.73,27.35,175.85,52.1C470.19,441.67,463,446.19,449.85,450.14Z"/><path class="cls-19" d="M346,193.6c-2,3.55-4,2.86-4,2.86l0,.06c-.2.44-1.69,3.56-3.61,8.12-1.29,3.08-2.55,5.64-4.55,7.31a38.17,38.17,0,0,1-3.94,2.86c-3.75,2.37-11.06,3.19-15,.52-2.21-1.5-4.32-5.5-5.39-9.87h0a56.61,56.61,0,0,1-3.75-11c-5.26,1.75-6.29-13.76-3.83-15l.08,0c2.57-1,2,3.94,4.34,4.53s-1.23-10.77,4.1-16.48,14.78-.07,19-1.06c1.59-.38,10.53-4.52,14.36-3.14s.23,24.14.23,24.14,1.87-3.55,3.25-3.35a.5.5,0,0,1,.33.2C348.54,185.32,347.79,190.38,346,193.6Z"/><path class="cls-20" d="M350.58,172c-.44,4.88-2.25,9.58-3,12.24a.49.49,0,0,0-.33-.2c-1.27-.18-2.93,2.74-3.22,3.27l0,.08s2.11-17.47-6.36-20.38c-3.86-1.32-5.48,1.91-9.36,3.24-4.07,1.4-10-4.88-15.34.83s-4.23,13.44-6.59,12.85l-.21-.06c-2.13-.82-1.65-5.42-4.13-4.47l-.09,0c-.13-5.19-2.06-17.12,3.52-23.52,8.1-9.27,22.47-10.24,33.11-6S351.2,165.12,350.58,172Z"/><path class="cls-21" d="M339.81,219a34.8,34.8,0,0,1-7.6,21.5c-6.71,8.57-26.52,4.53-29.28-2.77s-5.55-19.35-3.09-22.21a6.33,6.33,0,0,1,.8-.76c2.26.39,3.36-.89,4.74-1.75,2.8-1.73,4.14-5.72,4.17-7.59,1.92,4.12,4.18,7.25,6.4,8.76,3.94,2.66,9.76,2.36,13.51,0a38.85,38.85,0,0,0,4-2.8,5.07,5.07,0,0,0,.92,2.15l0,0c.55.61,1.78.88,2.92,1.45A4,4,0,0,1,339.81,219Z"/><path class="cls-22" d="M339.81,219a34.8,34.8,0,0,1-7.6,21.5c-6.71,8.57-26.52,4.53-29.28-2.77s-5.55-19.35-3.09-22.21a6.33,6.33,0,0,1,.8-.76c2.26.39,3.36-.89,4.74-1.75,2.8-1.73,4.14-5.72,4.17-7.59,1.92,4.12,4.18,7.25,6.4,8.76,3.94,2.66,9.76,2.36,13.51,0a38.85,38.85,0,0,0,4-2.8,5.07,5.07,0,0,0,.92,2.15l0,0c.55.61,1.78.88,2.92,1.45A4,4,0,0,1,339.81,219Z"/><path class="cls-23" d="M382.42,256.77a11.47,11.47,0,0,1-1.81,2,16.4,16.4,0,0,0-.39-4.59c-.49-2.85-1.48-4.45-4.63-7.41s-7.3-2.27-10.85-1.38-13.51,1-18.43,3.35c-4.11,2-4.53,5.31-4.54,6.38-2.24-.43-5.26-1.19-6.77-1.59a26.69,26.69,0,0,0-6.34-4.5c-4.14-2-8.19-1.18-15.38,2.66a16.57,16.57,0,0,0-8.06,9.3c-2.17.5-4.35,4.64-4.84,5.63-1.1-.33-3.28-.86-4.35-.44a4.67,4.67,0,0,0-2.18,2.47,7.6,7.6,0,0,0-2.56.59c-1.48.59-4.44,8.28-4.93,9s-9.83,8.46-10.42,9h0s-7.39.31-16.4.8c0-4.87,0-14.44.52-23.08.69-12.22,1.87-19.72,4.64-25.93s8.64-15.66,14-16.7c8.05-1.57,22-7.44,22-7.44-.28.21,10.82,23.84,31.43,8.2,1.84-1.39,6.53-7.3,5.23-7.94a36.12,36.12,0,0,1,14.34,3.09l.27.12c9.23,4,16.53,9.94,21.41,19.5S382.58,252.55,383,255A2.62,2.62,0,0,1,382.42,256.77Z"/><path class="cls-19" d="M313.19,278.58a4.74,4.74,0,0,1-3.16,1.29,1.61,1.61,0,0,1-1.18,2.37c-2.07.59-5.92-.89-5.92-.89a1.45,1.45,0,0,1-.39,2.16c-1.38.79-3.25.69-5.82-.09s-5.52-1.68-6.51-1.38a22.27,22.27,0,0,0-3.75,1.09c-1.15.57-10,3.82-10.52,4,.59-.5,9.94-8.29,10.42-9s3.45-8.38,4.93-9a7.6,7.6,0,0,1,2.56-.59,4.67,4.67,0,0,1,2.18-2.47c1.08-.43,3.25.11,4.35.44.41.12.67.21.67.21a25.72,25.72,0,0,1,5,1.41,19.2,19.2,0,0,1,3.5,1.79c3.75,2.47,5.32,4.34,2.37,5.23C313.45,276.21,314.37,277.3,313.19,278.58Z"/><path class="cls-24" d="M290.11,277.69a15.55,15.55,0,0,1,5.82.89c2.86,1.08,7,2.76,7,2.76"/><path class="cls-24" d="M292.68,273.55a26.59,26.59,0,0,1,7.89,1.87c3.25,1.48,9.46,4.44,9.46,4.44"/><path class="cls-24" d="M297.51,269.91a76.38,76.38,0,0,1,7.49,2.66c2.56,1.18,6.9,2.66,6.9,2.66"/><path class="cls-25" d="M244.37,413.35c-2.79,5.52-1.44,11.09-.33,14h-4.79a15.87,15.87,0,0,1-.07-8.25,70.57,70.57,0,0,1,2.83-8.32c1.48-4.24,4.53-14.79,6.41-20.21a43,43,0,0,0,1.49-9.64c.72,3.82,1.72,7.09,1.86,9.55C252.06,395.7,248.41,405.36,244.37,413.35Z"/><path class="cls-26" d="M336,262.8c-2.27-1.38-9.07.5-11.14-3.45s-1.68-8,1.38-8.77,9.66,6,10.54,5.52c.41-.23-.37-1.3-1.74-2.61a26.46,26.46,0,0,0-6.34-4.49c-4.14-2-8.18-1.18-15.38,2.66a16.57,16.57,0,0,0-8,9.3,1.63,1.63,0,0,1,.66,0c2.27.33.66,5.72.14,7.27a18.69,18.69,0,0,1,3.5,1.79c3.75,2.47,5.33,4.34,2.37,5.23,1.55,1,2.47,2.07,1.29,3.34a4.74,4.74,0,0,1-3.16,1.29,1.61,1.61,0,0,1-1.18,2.37c-2.07.59-5.92-.89-5.92-.89a1.46,1.46,0,0,1-.39,2.17c-1.38.79-3.25.68-5.82-.1s-5.52-1.68-6.51-1.38a22.13,22.13,0,0,0-3.75,1.09c-1.14.57-10,3.82-10.51,4h0l-1.29.06c-2.49.11-8.34.37-15.1.75-9.48.52-20.72,1.25-26.89,2.05-12,1.58-29,2.37-40.38,5.53s-20.94,4.92-29.61,6.9S147.9,308,143.9,314.5c-4.56,7.42,3.86,15.31,7.25,7.5,5-11.5,11.69-7.73,11.69-7.73a19.47,19.47,0,0,0-1.78,14c.86,3.27,3,11.24,1.19,20.11S148.64,362,145.68,370.46c-.08.23-.16.49-.23.77-2.77,10.28-3.71,56.11-3.71,56.11l15.77,2.07s-.72-5.84-1.18-12.93c-.12-1.68-.21-3.44-.28-5.2s-.11-3.34-.12-5a51.23,51.23,0,0,1,.8-10.62,50.18,50.18,0,0,1,6.33-14.76h0a60.23,60.23,0,0,1,9-11.44c6.31-6.12,23.66-22.48,23.66-22.48s13,4.53,22.08,3.55c6.37-.7,13.43-3.92,18.9-5.77a20.57,20.57,0,0,1,6-1.33,25.85,25.85,0,0,1,8.35,1.63s0,.1,0,.15c.3,3.25,1.77,11-1,21.09a31.64,31.64,0,0,0-.18,14.56v0s0,0,0,0c.72,3.82,1.71,7.09,1.86,9.55.29,5.21-3.35,14.88-7.4,22.87-2.79,5.52-1.44,11.08-.33,14a16.83,16.83,0,0,0,.92,2.07l13-1.57s-.59-14.29,1.48-20.11c.67-1.88,1.52-4.64,2.44-7.72h0c1.94-6.45,4.2-14.3,5.74-18.5,2.26-6.21-.7-10.84,2.46-14.49,1.58-1.81,2.19-5,2.91-8.28s1.57-6.75,3.6-9.07c3.55-4.07,9.38-6.69,12.75-8.88.46-.3.89-.59,1.25-.88,2.95-2.36,2.07-7.59,2.36-13A25.34,25.34,0,0,1,297.51,314c1.07-1.4,4.23-2.94,9.09-6.2l1.18-.8a107.55,107.55,0,0,0,12.51-10.15c12.61-11.83,12.9-15.68,15.86-19.14a12.1,12.1,0,0,0,2.7-6.54,29.63,29.63,0,0,0,.17-3.8C339,264.78,338.22,264.19,336,262.8ZM321.52,273c-3-.48-10.6-6.21-10-11.42s5.55-7.53,5.82-6.37c1,4.49,13.6,12,13.75,12S324.52,273.45,321.52,273Z"/><path class="cls-19" d="M306,268.21a25.72,25.72,0,0,0-5-1.41s-.26-.09-.67-.21c.48-1,2.67-5.13,4.84-5.63a1.79,1.79,0,0,1,.66,0C308.16,261.27,306.55,266.66,306,268.21Z"/><path class="cls-25" d="M160.87,411.28H156c-.24-5.86-.17-11.82.69-15.58a50.1,50.1,0,0,1,6.33-14.76C161.13,390,158.87,403.79,160.87,411.28Z"/><path class="cls-21" d="M331.07,267.15c.15,0-7.59,8.58-10.59,8.08s-9.57-8.48-9-13.7,5.55-7.52,5.82-6.36C318.36,259.65,330.93,267.15,331.07,267.15Z"/><polygon class="cls-27" points="282.82 256.27 285.66 278.88 280.77 283.08 282.82 256.27"/><path class="cls-21" d="M350.85,263.33h0a2.2,2.2,0,0,0-1.49-1.19h-.12c-1.18,0-1.61,1.4-3.23,1.83s-2-.5-1.83-1.59,2.22-1.47,3.45-2.46a3.43,3.43,0,0,0,.67-.76,2.67,2.67,0,0,0,.27-2.7h0a1.56,1.56,0,0,0-.45-.52c-1.23-.95-2.07-.5-4-.5a14,14,0,0,1-2.32-.33c-2.24-.43-5.26-1.19-6.77-1.59,1.36,1.3,2.14,2.38,1.74,2.6-.89.5-7.49-6.31-10.54-5.51s-3.45,4.83-1.38,8.77,8.87,2.07,11.14,3.45,3.05,2,3.05,4.53a30.13,30.13,0,0,1-.17,3.81,29,29,0,0,0,9.1-2.27,7,7,0,0,0,2.7-2.07A3.14,3.14,0,0,0,350.85,263.33Z"/><path d="M330.73,255.7c-1,.8-2.89.9-3.18-.51a2,2,0,0,1,.78-1.78,1.81,1.81,0,0,1,2-.32l1.1.48A2.12,2.12,0,0,1,330.73,255.7Z"/><path class="cls-28" d="M349.25,262.11c-1.18,0-1.61,1.4-3.23,1.83s-2-.5-1.83-1.59,2.22-1.47,3.45-2.46a3.43,3.43,0,0,0,.67-.76A4.91,4.91,0,0,1,349.25,262.11Z"/><path class="cls-29" d="M380.61,258.74c-.12,1,.31,2.63-.34,3.81-4.38,8-14.13,8-21.31,9.83-7,1.81-9-2.18-10.07-.93a6.84,6.84,0,0,1-.95-2.57,7,7,0,0,0,2.7-2.07,3.14,3.14,0,0,0,.21-3.48h0a12,12,0,0,0-.21-4.51,3.09,3.09,0,0,0-2.06-2.37h0a1.56,1.56,0,0,0-.45-.52c-1.23-.95-2.07-.5-4-.5a14,14,0,0,1-2.32-.33c0-1.06.44-4.4,4.54-6.38,4.92-2.37,13.22-3.73,17.54-4.45,6.25-1,9.32-1,12.25,2.21s3.63,4.84,4.11,7.69A16.4,16.4,0,0,1,380.61,258.74Z"/><path class="cls-23" d="M348.9,273.18a51.48,51.48,0,0,1-4.72,8.16c-2.56,3.35-3.6,10.15-3.6,13.79s-2.17,4.44-2.17,6.51,1.87,2.77,0,4-1.38,1.48-1,3.64-3.36,1.38-2.77,3.35c.52,1.75,3.23,4.35,2.52,7.94a34.64,34.64,0,0,0-3.89-3c-5.89-4-12-11.32-25.52-10.55a107.67,107.67,0,0,0,12.5-10.15c12.61-11.83,12.91-15.68,15.86-19.14a12.05,12.05,0,0,0,2.7-6.53,29,29,0,0,0,9.1-2.27,6.84,6.84,0,0,0,.95,2.57l-.12.14A1.14,1.14,0,0,0,348.9,273.18Z"/><path class="cls-30" d="M339.54,348.07a14.07,14.07,0,0,1-.53-5.21c.47-2.08-1.59-8-1.76-8.45.08.63,1.36,10.27-7.8,14.85-9.46,4.73-23.07,7-23.07,7S298,348,295.83,346.21c-1.56-1.25-4.25-3.53-6.47-5.43a14.91,14.91,0,0,0,1.24-.88c3-2.37,2.07-7.6,2.37-13A25.29,25.29,0,0,1,297.51,314c1.15-1.51,4.73-3.18,10.27-7,13.5-.77,19.63,6.6,25.52,10.55a34.64,34.64,0,0,1,3.89,3,19.69,19.69,0,0,1,6.76,12.17C344.5,336.12,345.14,342.21,339.54,348.07Z"/><path d="M341.28,407.64a14.18,14.18,0,0,1-9.42,5.57c-4,.3-15.72.94-16.81-1.24s.48-6.29.48-6.29a4.78,4.78,0,0,0,.2,2.35c1.09,2.16,14.89,2,19.22,0,4.07-1.86,6.58-5.35,6.87-8.46C341.84,399.57,342.47,405.66,341.28,407.64Z"/><path class="cls-31" d="M341.48,381.5c.4,3,.4,14.19.4,17.45a4.17,4.17,0,0,1,0,.61c-.29,3.11-2.8,6.6-6.87,8.46-4.33,2-18.14,2.17-19.23,0a4.91,4.91,0,0,1-.2-2.35c.3-3.39,2.07-8.84,2.68-11,.33-1.15.71-2.24,1.08-3.26a40,40,0,0,0,1.28-3.84c.49-2-.2-1.08-1.69-4.14s-1.26-4.23-.78-8.08a8.38,8.38,0,0,0-1-5.74c-.53-1.1-1.31-1.69-2.22-3.65l-.62-.72-6.91-7.91-1-1.11s13.6-2.27,23.07-7c9.15-4.58,7.88-14.22,7.79-14.85a46.34,46.34,0,0,1,1.49,5.1,9.07,9.07,0,0,1,.28,3.35,13.75,13.75,0,0,0,.53,5.21c.41,1.73.92,3.45,1.24,4.55.69,2.37.3,9.76,1.09,15.18S341.09,378.54,341.48,381.5Z"/><path class="cls-32" d="M314.28,365.28a36,36,0,0,1-8.58.91,33.36,33.36,0,0,1-9.12-1.19c-5.77-1.78-8-1.05-9.62,0-.78.49-3.93,3.93-7.23,7.83l-.12.15c-3.53,4.2-7.19,8.89-8.18,10.94-.65,1.35-2.62,4.72-5,8.59-1.45,2.43-3.06,5-4.58,7.49,1.94-6.45,4.2-14.3,5.74-18.5,2.26-6.21-.7-10.84,2.46-14.49s2.46-12.72,6.51-17.35c3.55-4.07,9.38-6.69,12.75-8.88,2.23,1.9,4.91,4.17,6.47,5.43,2.22,1.77,10.56,10.05,10.56,10.05Z"/><path class="cls-33" d="M305.7,366.19a33.36,33.36,0,0,1-9.12-1.19c-5.77-1.78-8-1.05-9.62,0-.78.49-3.93,3.93-7.23,7.83-1-1.9-2.79-5.65-.83-8.08,2.63-3.25,7.84-3.17,9.5-5.75,0,0,1.52.52-.26-4.21s-.61-11-.61-11S295.27,357.52,305.7,366.19Z"/><path d="M282.31,369.85c-.08,1-.8,5.28-.85,6.6-.15,4.44-1,10.61-2.69,13.94s-4.16,5-6.42,5.07-4.21-.73-4.87-2.93a107.16,107.16,0,0,0,5-9.87C273.45,380.59,279,373.41,282.31,369.85Z"/><path class="cls-31" d="M279.61,373c-.08,1-.14,2.15-.19,3.47-.15,4.44-1.07,10.65-2.78,14s-3,5-5.29,5-4.21-.73-4.87-2.93c2.33-3.87,4.29-7.24,4.95-8.59C272.42,381.87,276.07,377.18,279.61,373Z"/><path class="cls-32" d="M250.09,366.32a31.64,31.64,0,0,0-.18,14.56v0s0,0,0,0a43.37,43.37,0,0,1-1.49,9.64c-1.88,5.42-4.94,16-6.41,20.21a69.68,69.68,0,0,0-2.83,8.32,39.16,39.16,0,0,1-9.07.38,23.28,23.28,0,0,1-7.62-1.84c-7.85-3.55-6.07-19.38-4-26,1.46-4.72,11-28.69,16.41-42.24l1.84-4.59a20.57,20.57,0,0,1,6-1.33,25.85,25.85,0,0,1,8.35,1.63s0,.1,0,.15C251.38,348.48,252.85,356.26,250.09,366.32Z"/><path class="cls-11" d="M351.27,264.69c-.48-1.75-1.38-2.51-1.91-2.57h-.12a4.91,4.91,0,0,0-.93-3,2.67,2.67,0,0,0,.27-2.7,5,5,0,0,1,3.29,3.44A6,6,0,0,1,351.27,264.69Z"/><path class="cls-19" d="M381.72,274.54c-4,3.05-6.13,4.92-14.41,4.92s-8.09-3.74-12.72-4.44c-2.9-.43-4.87-1.05-5.69-1.85a1.14,1.14,0,0,1-.13-1.6l.12-.14c1.09-1.24,3,1.66,9.95-.15,7.18-1.88,10.93-3.66,10.43-6.32s-.89-3.15-1.57-4-1.87-4.44-.54-6.21,1.53.89,4,3.25a14.78,14.78,0,0,1,4.44,7.39c.06.27.12.54.17.82a14.31,14.31,0,0,0,3.77-4.18,8.58,8.58,0,0,0,1.08-3.28,11.47,11.47,0,0,0,1.81-2,29.26,29.26,0,0,1,2.64,5.74C386.72,267.34,385.68,271.48,381.72,274.54Z"/><ellipse cx="317.35" cy="185.52" rx="2.31" ry="1.62" transform="translate(85.77 471.01) rotate(-81.26)"/><ellipse cx="334.26" cy="188.37" rx="2.31" ry="1.62" transform="matrix(0.15, -0.99, 0.99, 0.15, 97.3, 490.13)"/><path d="M322.49,181.86a4.84,4.84,0,0,0,.69-2.2c-.13-.63-6.52-1.8-7.89-1.46a11.16,11.16,0,0,0-3.41,2.23,32.94,32.94,0,0,1,4-1.09C316.1,179.46,322.49,181.86,322.49,181.86Z"/><path d="M332.67,181.13a38.08,38.08,0,0,1,6.45.65c1,.41,2.19,3.75,2.19,3.75L339,183.25l-6.2-.12A13.32,13.32,0,0,1,332.67,181.13Z"/><g class="cls-34"><path class="cls-35" d="M328.55,188.48a5.91,5.91,0,0,0,.56,5,7.33,7.33,0,0,0,.84,1l.5.46a2.93,2.93,0,0,1,.28.29,1,1,0,0,1,.17.35.8.8,0,0,1-.06.43,2,2,0,0,1-.56.69,5,5,0,0,1-.6.45,7,7,0,0,1-1.31.66,5.09,5.09,0,0,1-1.48.3,2.88,2.88,0,0,1-1.51-.33c-.83-.4-1.68-.79-2.5-1.2l-.62-.31a1.4,1.4,0,0,1-.34-2.23,5.9,5.9,0,0,0,1.75-2,5.38,5.38,0,0,1-1.39,2.37.84.84,0,0,0-.06,1,.81.81,0,0,0,.35.3l.63.25c.84.32,1.67.68,2.5,1a2.06,2.06,0,0,0,1.13.24,4.2,4.2,0,0,0,1.18-.27,6,6,0,0,0,1.13-.55,4.07,4.07,0,0,0,.5-.36,1.74,1.74,0,0,0,.32-.33s0,0,0,.1,0,.07,0,0a2.17,2.17,0,0,0-.18-.21l-.48-.5a6.41,6.41,0,0,1-.87-1.16,5,5,0,0,1-.68-2.79A7,7,0,0,1,328.55,188.48Z"/></g><path class="cls-11" d="M330.24,202.19l-12.63-1.94s1.79,4.81,5.9,5.66C328,206.83,330.24,202.19,330.24,202.19Z"/><path d="M321,185.88a4.1,4.1,0,0,0-1.63-.93,7.17,7.17,0,0,0-1.47-.21l-1.76-.11a9.83,9.83,0,0,1-2.14-.34,4.46,4.46,0,0,1,1.78-1.46,4.66,4.66,0,0,1,2.3-.42,3.58,3.58,0,0,1,2.36,1.06A2.31,2.31,0,0,1,321,185.88Z"/><path d="M331.9,187a3.09,3.09,0,0,1,1.54-1.38,3.85,3.85,0,0,1,2.05-.28,3.42,3.42,0,0,1,1.94.95,2.61,2.61,0,0,1,.81,2c-.76-.16-1.26-.33-1.76-.39s-.88-.16-1.33-.21l-1.44-.22A15.87,15.87,0,0,1,331.9,187Z"/><path class="cls-36" d="M344.08,187.31l0,.08s2.11-17.47-6.36-20.38c-3.86-1.32-5.48,1.91-9.36,3.24-4.07,1.4-10-4.88-15.34.83s-4.23,13.44-6.59,12.85l-.21-.06c-.05-5.47-2.68-11.76,1.78-18.37,6.37-9.44,13.53,3.65,20-.58s8-5.36,13-2.84C347.71,165.51,344.92,185.41,344.08,187.31Z"/><path class="cls-19" d="M339.81,219c0,4.34-4.2,3-10.91,11.55-2.52,3.21-4.56,8.95-7.85,10.91a4.44,4.44,0,0,1-2.57.69c-5.68-.25-3.24-8.07-5.75-11.43-5.28-7.07-14.24-9-12.26-15.43h0c0-.17.1-.34.17-.52,2.08-.63,3.2-1.21,4.74-1.75,2.39,4.3,6.27,8.88,13.27,8.72,6.07-.14,11.75-4.35,15.69-8.2l0,0c.55.61,1.78.88,2.92,1.45A4,4,0,0,1,339.81,219Z"/><path class="cls-20" d="M342,196.52c-5.24,10.76-4.4,11-8.9,15.06-7.42,6.7-5.73,19.88-4.08,27.12a2.1,2.1,0,0,0,3.71.81,16.14,16.14,0,0,1,12.61-6.26c9-.43,11.87-5,13.42-12.11C360.73,212.17,346.46,207.94,342,196.52Z"/><path class="cls-37" d="M352.39,231.25a13.49,13.49,0,0,1-7,2,16.14,16.14,0,0,0-12.61,6.26,2.08,2.08,0,0,1-2.82.47c1-7.12,4.18-24.42,11.37-25.18C347.19,214.17,350.67,224.16,352.39,231.25Z"/><path class="cls-38" d="M321,241.49a4.44,4.44,0,0,1-2.57.69c-5.68-.25-3.24-8.07-5.75-11.43-5.28-7.07-14.24-9-12.26-15.43.18,1.6,1,3.78,4,5.76,5.5,3.67,8.34,5.87,10.34,10.23s2,7.16,2.53,8.71C317.69,241,319.62,241.35,321,241.49Z"/><path class="cls-39" d="M156.55,420.37c.06.27-14.73,1.29-14.73,1.29v6a3.6,3.6,0,0,0,3.6,3.6l12.58-.46a1.78,1.78,0,0,0,1.6-2.41Z"/><path class="cls-39" d="M257.92,420.72c.06.27-15.09,1.33-15.09,1.33v6a3.6,3.6,0,0,0,3.6,3.6l12.58-.46a1.78,1.78,0,0,0,1.6-2.41Z"/><path class="cls-39" d="M239.3,418.57l-1.22,6.15a3.6,3.6,0,0,0,3.6,3.6l2-.07a72.66,72.66,0,0,1-.8-10Z"/><path class="cls-39" d="M161.69,416.28l-5.36.2c-.12-1.68-.21-3.44-.28-5.2s-.11-3.34-.12-5a30.61,30.61,0,0,0,4.31-.5l3.05,8.06A1.78,1.78,0,0,1,161.69,416.28Z"/><path class="cls-40" d="M332.65,385.67c.06,2.8-8.31,4.81-13.35,5.78a40,40,0,0,0,1.28-3.84c.49-2-.2-1.08-1.69-4.14s-1.26-4.23-.78-8.08a8.38,8.38,0,0,0-1-5.74c5.32-.2,14.42-.23,15,1.77.75,2.83-12,3.91-12,6.41S332.57,381.67,332.65,385.67Z"/><path class="cls-41" d="M250.09,366.32a31.64,31.64,0,0,0-.18,14.56v0s0,0,0,0a43.37,43.37,0,0,1-1.49,9.64c-1.88,5.42-4.94,16-6.41,20.21a69.68,69.68,0,0,0-2.83,8.32,39.16,39.16,0,0,1-9.07.38c1.66-7.5,7.39-16.77,10.76-24,4-8.55,7-10.2,2-22.47s4.32-16,0-21.48c-2.08-2.66-5.22-2.75-7.92-2.13l1.84-4.59a20.57,20.57,0,0,1,6-1.33,25.85,25.85,0,0,1,8.35,1.63s0,.1,0,.15C251.38,348.48,252.85,356.26,250.09,366.32Z"/><path class="cls-40" d="M338.74,339.51A20.19,20.19,0,0,1,328,352.08c-6.82,3.22-16.72,4.78-20.61,5.29l-1-1.11s13.6-2.27,23.07-7c9.15-4.58,7.88-14.22,7.79-14.85A46.34,46.34,0,0,1,338.74,339.51Z"/><path class="cls-42" d="M306.6,307.77c-4.86,3.26-8,4.8-9.09,6.2A25.34,25.34,0,0,0,293,326.89c-.29,5.42.59,10.65-2.36,13-.36.29-.79.58-1.25.88-3.37,2.19-9.2,4.81-12.75,8.88-2,2.32-2.87,5.76-3.6,9.07-2.6-5.1-5.94-13.1-5.53-20.05.67-11.23,10.34-9.43,8.47-19.43s9.53-8,15.91-16.45C296.07,297.23,302.63,303.12,306.6,307.77Z"/><path class="cls-42" d="M274.63,287.21c-2.49.11-8.34.37-15.1.75-9.48.52-20.72,1.25-26.89,2.05-12,1.58-29,2.37-40.38,5.53-8.51,2.35-16,3.93-22.81,5.4a106.13,106.13,0,0,1-7.49,13,4.56,4.56,0,0,1,.88.34,19.47,19.47,0,0,0-1.78,14c.86,3.27,3,11.24,1.19,20.11S148.64,362,145.68,370.46c-.08.23-.16.49-.23.77,1.67-.8,9.83.16,11.7-1.39,9.63-8-.38-11.11,10.83-14.93,5.44-1.85.92-7.61,1.47-11.47.58-4.1,6-6.46,3.2-13.82-2.33-6.21,7.5-2.88,8.5-12.38s6.5-1.5,8.5-6.5,16.5,0,19.5-7.95,17,1.95,25.08-5.05,16.92,2,22.42-3.05,13,1.55,19.3,0C278.89,294,277.23,290.6,274.63,287.21Z"/><path class="cls-26" d="M162.65,302.44c-8.69,2-14.75,5.56-18.75,12.06-4.56,7.42,3.86,15.31,7.25,7.5,3.9-9,8.83-8.65,10.81-8.07a106.13,106.13,0,0,0,7.49-13C167.12,301.45,164.85,301.94,162.65,302.44Z"/><g class="cls-34"><path class="cls-35" d="M344.67,187.2a14,14,0,0,1,1-1.32,1.63,1.63,0,0,1,.73-.5.69.69,0,0,1,.86.44,8.46,8.46,0,0,1-.15,3.33,11.86,11.86,0,0,1-1.07,3.12,5.42,5.42,0,0,1-1,1.35,1.74,1.74,0,0,1-1.54.5,1.71,1.71,0,0,0,1.37-.67,5.21,5.21,0,0,0,.81-1.35,17.75,17.75,0,0,0,1.18-4.64,5.68,5.68,0,0,0,0-1.54c0-.18-.22-.28-.43-.25a1.41,1.41,0,0,0-.63.37C345.4,186.39,345.06,186.82,344.67,187.2Z"/></g><g class="cls-34"><path class="cls-35" d="M345.92,188.43a1.35,1.35,0,0,0-.84,0,.84.84,0,0,0-.58.4c-.05.16.06.27.32.5a5.83,5.83,0,0,1,.62.69,2,2,0,0,1,.25.45.58.58,0,0,1-.14.68,1.29,1.29,0,0,1-.51.16l-.39.12a1.49,1.49,0,0,0-.65.44c-.18.18.07.42.34.55a.9.9,0,0,1-.44-.16.41.41,0,0,1-.12-.5,1.71,1.71,0,0,1,.7-.67,2.09,2.09,0,0,1,.44-.2,1.18,1.18,0,0,0,.33-.11s0-.26-.21-.46a6.31,6.31,0,0,0-.55-.65,2.28,2.28,0,0,1-.32-.38.6.6,0,0,1,0-.62A1.26,1.26,0,0,1,345.92,188.43Z"/></g><g class="cls-34"><path class="cls-35" d="M304.31,183.9c-.34-.42-.62-.9-1-1.29a1.41,1.41,0,0,0-.57-.45c-.2-.06-.42,0-.45.19a5.68,5.68,0,0,0-.19,1.53,17.75,17.75,0,0,0,.55,4.75,5.21,5.21,0,0,0,.63,1.44,1.71,1.71,0,0,0,1.26.85,1.74,1.74,0,0,1-1.46-.7,5.42,5.42,0,0,1-.8-1.47,11.86,11.86,0,0,1-.64-3.24,8.46,8.46,0,0,1,.3-3.32.69.69,0,0,1,.91-.32,1.63,1.63,0,0,1,.65.59A14,14,0,0,1,304.31,183.9Z"/></g><g class="cls-34"><path class="cls-35" d="M302.91,184.95a1.26,1.26,0,0,1,1.72.44.6.6,0,0,1-.09.61,2.28,2.28,0,0,1-.36.34,6.31,6.31,0,0,0-.63.57c-.2.18-.32.47-.27.43s.15.08.31.16a2.09,2.09,0,0,1,.41.25,1.71,1.71,0,0,1,.61.76.41.41,0,0,1-.19.48.9.9,0,0,1-.45.1c.28-.09.57-.29.41-.5a1.49,1.49,0,0,0-.59-.52l-.37-.17a1.29,1.29,0,0,1-.48-.23.58.58,0,0,1-.05-.69,2,2,0,0,1,.3-.41,5.83,5.83,0,0,1,.7-.6c.29-.19.41-.28.38-.45a.84.84,0,0,0-.53-.47A1.35,1.35,0,0,0,302.91,184.95Z"/></g></g></g></svg>